<?xml version="1.0" standalone="no"?>
<!DOCTYPE svg PUBLIC "-//W3C//DTD SVG 20010904//EN"
 "http://www.w3.org/TR/2001/REC-SVG-20010904/DTD/svg10.dtd">
<svg version="1.0" xmlns="http://www.w3.org/2000/svg"
 width="500.000000pt" height="500.000000pt" viewBox="0 0 500.000000 500.000000"
 preserveAspectRatio="xMidYMid meet">

<g transform="translate(0.000000,500.000000) scale(0.100000,-0.100000)"
fill="#000000" stroke="none">
<path d="M695 2928 c-3 -7 -4 -218 -3 -468 l3 -455 468 -3 467 -2 0 34 0 35
46 -20 c40 -18 51 -19 95 -9 28 7 63 23 79 36 35 30 37 30 45 -6 l7 -30 77 0
78 0 28 141 c31 158 27 200 -21 238 -56 44 -209 51 -322 15 -40 -13 -52 -22
-57 -43 -3 -14 -8 -34 -11 -43 -5 -16 3 -18 64 -18 64 0 70 2 80 25 15 32 56
49 83 35 14 -8 19 -21 19 -54 l0 -43 -89 -6 c-88 -6 -150 -24 -183 -54 -17
-15 -18 -1 -18 345 l0 362 -465 0 c-363 0 -467 -3 -470 -12z m787 -13 c3 -4
-129 -643 -156 -750 l-6 -25 138 0 c76 0 141 -2 143 -5 3 -2 0 -29 -5 -60
l-10 -55 -298 0 c-164 0 -298 1 -298 3 0 6 150 712 171 805 l21 92 147 0 c81
0 150 -2 153 -5z m420 -700 c-8 -70 -60 -116 -96 -85 -36 29 -5 100 49 113 39
10 50 3 47 -28z"/>
<path d="M3063 2639 c-35 -10 -73 -52 -73 -81 0 -10 11 -30 25 -43 54 -55 168
-18 168 54 0 56 -55 88 -120 70z"/>
<path d="M2379 2558 c-16 -30 -101 -88 -145 -99 -36 -9 -43 -15 -46 -40 -4
-27 -2 -29 29 -29 39 0 39 2 13 -125 -25 -120 -25 -166 -2 -194 22 -29 93 -44
164 -36 46 6 57 11 62 28 10 38 7 47 -19 47 -14 0 -28 7 -32 15 -3 9 5 71 19
138 l24 122 39 5 c35 4 40 9 43 33 3 25 1 27 -33 27 -30 0 -35 3 -31 18 3 9 9
36 15 60 10 46 14 43 -57 46 -23 1 -37 -5 -43 -16z"/>
<path d="M2739 2549 c-25 -36 -101 -85 -143 -93 -28 -5 -35 -12 -38 -36 -4
-28 -2 -30 29 -30 39 0 39 2 13 -125 -27 -130 -26 -170 3 -199 28 -28 97 -40
165 -30 51 7 62 16 62 52 0 17 -6 22 -25 22 -14 0 -28 7 -32 16 -5 13 30 212
44 251 3 7 21 13 41 15 32 3 37 7 40 31 3 25 1 27 -33 27 -30 0 -35 3 -31 18
3 9 9 36 15 60 8 39 7 42 -13 46 -48 10 -78 2 -97 -25z"/>
<path d="M3372 2446 c-111 -28 -180 -106 -189 -214 -6 -80 24 -137 91 -172 43
-21 63 -24 140 -24 104 1 173 17 180 42 2 9 7 33 11 52 4 19 9 43 11 53 5 15
-3 17 -60 17 -64 0 -66 -1 -82 -32 -9 -18 -23 -41 -32 -50 -19 -22 -58 -23
-66 -2 -18 48 5 176 44 239 18 29 28 35 49 33 24 -3 26 -7 29 -55 l3 -53 64 0
64 0 11 56 c6 30 9 61 6 69 -16 44 -172 67 -274 41z"/>
<path d="M3915 2454 c-145 -23 -221 -97 -232 -223 -6 -80 24 -137 92 -171 41
-20 64 -24 135 -24 99 0 196 25 204 52 3 9 8 34 12 55 l6 37 -76 0 c-42 0 -76
-4 -76 -9 0 -21 -53 -71 -76 -71 -27 0 -37 26 -32 86 l3 39 137 3 136 3 11 31
c16 45 14 110 -5 136 -8 12 -29 29 -45 38 -31 16 -141 26 -194 18z m80 -124
l0 -55 -52 -3 c-63 -4 -67 7 -27 75 21 37 30 44 52 41 26 -3 27 -6 27 -58z"/>
<path d="M2965 2438 c-2 -7 -20 -92 -40 -188 -19 -96 -38 -183 -41 -193 -5
-16 2 -18 92 -15 l98 3 42 195 c24 107 43 198 43 203 1 13 -189 8 -194 -5z"/>
</g>
</svg>
